<svg width="650" height="165" viewBox="0 0 650 165" fill="none" xmlns="http://www.w3.org/2000/svg">
<path d="M166.796 22.1612C166.796 22.1612 175.805 22.1198 183.068 17.1565C188.262 13.5581 189.845 12.7309 191.265 13.3099C192.685 13.889 192.523 17.4874 192.523 19.5968V155.634C192.523 155.634 192.442 162.169 196.784 162.417L201.126 162.706L201.166 164.774H170.489V162.458C170.489 162.458 178.645 163.575 178.929 156.875C179.173 150.174 178.929 32.2947 178.929 32.2947C178.929 32.2947 179.457 23.9811 173.289 23.9811H167.121L166.796 22.1612Z" fill="white"/>
<path d="M515.173 68.2958L506.188 77.4378H482.527C482.527 77.4378 482.853 109.125 482.527 113.509C482.202 117.894 481.389 156.613 492 158.475C502.57 160.378 510.294 143.5 511.554 141.225C512.774 138.908 513.587 136.716 515.376 139.239C517.124 141.763 505.294 155.786 505.294 155.786C505.294 155.786 496.025 166.252 482.04 164.597C468.055 162.901 468.99 143.459 468.99 143.459V77.8514H457.932L465.29 72.4738C469.396 69.4954 472.852 65.6483 475.372 61.1807L482.609 48.5226L482.649 68.2958H515.173Z" fill="white"/>
<path d="M526.672 79.0042V77.7587C526.672 77.7587 542.556 73.5657 548.298 68.999C554.041 64.4324 554.285 67.9612 554.285 68.999V153.482C554.285 153.482 554.53 162.118 559.499 162.367C564.467 162.616 566.096 162.367 566.096 162.367V164.774H527.486V162.367C527.486 162.367 539.012 162.118 539.012 154.188V87.3072C539.012 87.3072 538.687 78.9212 533.351 78.9627L526.672 79.0042Z" fill="white"/>
<path d="M553.966 40.9667C553.966 46.8262 548.71 51.4564 542.632 50.391C538.772 49.7354 535.611 46.5393 534.912 42.6877C533.845 36.6233 538.485 31.3375 544.357 31.3375C549.654 31.3785 553.966 35.6809 553.966 40.9667Z" fill="white"/>
<path d="M144.209 29.8341C172.446 64.4705 168.215 116.281 133.02 145.798C97.8259 175.315 46.6007 169.412 18.5265 134.94C-9.66972 100.263 -5.47893 48.494 29.7155 18.9767C64.91 -10.5406 116.135 -4.63716 144.209 29.8341ZM32.3602 141.546C53.8023 167.884 88.061 167.678 113.491 146.376C148.848 116.693 158.328 57.4524 130.416 23.1875C108.974 -3.15097 74.7156 -2.94455 49.2861 18.3574C13.8882 47.9986 4.40806 107.281 32.3602 141.546Z" fill="white"/>
<path d="M283.625 81.056C287.811 73.924 294.679 71.5191 302.32 71.1044C309.758 70.6898 316.017 73.7997 318.944 80.8901C321.098 86.1147 322.52 92.0442 322.764 97.7249C323.292 111.159 323.008 124.594 322.927 138.029C322.927 139.521 322.683 141.678 321.707 142.424C313.904 148.561 306.06 154.822 295.736 155.693C288.949 156.273 282.487 154.905 278.707 148.395C274.846 141.719 276.512 135.002 281.064 129.446C284.884 124.76 289.64 120.862 293.867 116.508C298.053 112.196 302.808 108.174 306.1 103.24C312.197 94.2004 308.376 84.622 297.728 83.0049C293.257 82.3 288.624 82.8805 284.072 82.8805C282.771 82.5073 283.625 81.056 283.625 81.056ZM299.272 86.4464C305.938 86.5708 309.067 92.7491 305.369 98.4712C303.418 101.498 300.654 104.235 297.687 106.308C292.038 110.206 286.022 113.482 280.129 117.048C272.773 121.484 266.148 126.75 262.409 134.877C255.255 150.344 263.344 163.654 280.048 164.4C294.314 165.022 305.897 158.968 316.464 150.054C318.456 148.395 320.366 146.653 322.52 144.787C322.967 149.763 323.13 153.993 323.78 158.139C324.471 162.327 327.357 164.732 331.462 164.774C340.566 164.856 346.865 159.466 352.799 153.578C352.474 153.122 352.149 152.666 351.824 152.21C348.654 155.112 345.727 156.19 343.817 156.522C341.988 156.854 340.2 155.817 339.631 153.993C339.143 152.458 338.859 150.593 338.574 149.141C338.168 147.11 338.452 144.953 338.452 142.839C338.412 127.745 338.574 112.694 338.249 97.6005C337.883 80.7657 328.495 70.0678 312.319 68.1604C301.386 66.875 290.696 68.4092 280.779 73.5094C277.447 75.2095 274.358 77.7388 271.797 80.517C269.196 83.2951 267.652 87.0269 270.172 90.7173C272.895 94.6979 276.39 92.4588 279.601 91.2149C279.641 91.1734 292.607 86.3635 299.272 86.4464Z" fill="white"/>
<path d="M445.31 136.748C436.783 147.956 425.86 153.54 412.583 153.54C400.28 153.54 390.251 149.558 382.455 141.633C374.659 133.709 370.762 123.568 370.762 111.251C370.762 99.0565 373.847 89.449 379.979 82.4281C386.11 75.4072 393.906 71.8762 403.285 71.8762C407.305 71.8762 410.959 72.7795 414.248 74.545C417.537 76.3105 420.014 78.3223 421.719 80.5394C423.424 82.7566 425.251 84.7684 427.2 86.5339C429.149 88.3404 430.895 89.2026 432.479 89.2026C435.159 89.2026 437.311 88.4225 438.975 86.7802C440.6 85.179 441.452 83.4545 441.452 81.6069C441.452 78.1581 438.488 74.9966 432.601 72.0815C426.673 69.2075 419.486 67.7294 410.959 67.7294C397.56 67.7294 385.541 73.0259 374.863 83.6188C364.224 94.2117 358.865 106.16 358.865 119.462C358.865 132.519 362.925 143.153 371.086 151.405C379.248 159.658 389.764 163.764 402.676 163.764C412.421 163.764 421.76 160.438 430.733 153.787C436.986 149.147 442.305 143.645 446.812 137.363C446.284 137.24 445.797 136.994 445.31 136.748Z" fill="white"/>
<path d="M275.545 22.4605C275.545 22.4605 274.566 21.7599 272.731 20.8532C268.081 18.4627 262.411 17.1851 255.518 17.1851C248.665 17.1851 242.71 18.5864 237.734 21.3477C232.757 24.1503 228.597 28.1069 225.293 33.3C221.989 38.493 219.99 43.5212 219.297 48.3845C218.603 53.2478 218.236 60.1307 218.236 68.9918L208.243 78.2239H218.318C218.358 111.278 218.399 153.152 218.236 156.903C217.951 163.579 209.752 162.466 209.752 162.466V164.774H243.893L243.77 162.384C243.77 162.384 242.057 162.673 237.693 162.384C233.328 162.096 233.491 155.666 233.491 155.666V78.2239H249.726L258.088 68.2087H233.532C233.532 52.1762 233.859 43.8097 234.47 38.9464C234.552 38.493 234.674 38.0809 234.756 37.6275C235.205 35.7316 236.347 31.9811 238.876 28.6015C239.406 27.9833 239.895 27.3238 240.507 26.7468C242.995 24.3152 245.81 22.7902 248.951 22.2132C248.991 22.2132 249.032 22.2132 249.032 22.172C250.052 21.966 251.112 21.8835 252.255 21.8835C267.428 21.9247 261.514 39.6058 275.545 34.0006C278.482 32.8466 280.032 31.5277 280.685 30.2913C282.643 26.3347 275.545 22.4605 275.545 22.4605Z" fill="white"/>
<path d="M644.519 22.4605C644.519 22.4605 643.54 21.7599 641.705 20.8532C637.055 18.4627 631.385 17.1851 624.491 17.1851C617.639 17.1851 611.683 18.5864 606.707 21.3477C601.731 24.1091 597.57 28.1069 594.266 33.3C590.962 38.493 588.964 43.5212 588.27 48.3845C587.577 53.2478 587.21 60.1307 587.21 68.9918L577.216 78.2239H587.291C587.332 111.278 587.373 153.152 587.21 156.903C586.924 163.579 578.726 162.466 578.726 162.466V164.774H612.866L612.744 162.384C612.744 162.384 611.031 162.673 606.666 162.384C602.302 162.096 602.465 155.666 602.465 155.666V78.2239H618.699L627.061 68.2087H602.506C602.506 52.1762 602.832 43.8097 603.444 38.9464C603.526 38.493 603.648 38.0809 603.73 37.6275C604.178 35.7316 605.32 31.9811 607.849 28.6015C608.38 27.9833 608.869 27.3238 609.481 26.7468C611.969 24.3152 614.783 22.7902 617.924 22.2132C617.965 22.2132 618.006 22.2132 618.006 22.172C619.026 21.966 620.086 21.8835 621.228 21.8835C636.402 21.9247 630.487 39.6058 644.519 34.0006C647.456 32.8466 649.006 31.5277 649.659 30.2913C651.616 26.3347 644.519 22.4605 644.519 22.4605Z" fill="white"/>
</svg>
