<svg xmlns="http://www.w3.org/2000/svg" xmlns:xlink="http://www.w3.org/1999/xlink" width="121.912" height="72.254"><defs><path id="a" d="M0 0h121.912v72.254H0z"/></defs><clipPath id="b"><use xlink:href="#a" overflow="visible"/></clipPath><path clip-path="url(#b)" fill="none" stroke="#000" stroke-miterlimit="10" d="M.503 45.815C.241 30.248 15.76 14.674 33.816 18.51c0 0 4.658-18.01 25.51-18.01s24.81 17.437 24.81 17.437 15.898-2.423 21.693 14.588c0 0 15.466-.07 15.582 16.546.094 13.364-12.696 16.269-15.726 16.387-3.029.115-6.876-.925-8.622-2.206 0 0-4.425 5.341-11.528 5.69-7.105.351-12.348-1.743-12.348-1.743s-5.476 4.53-12.696 4.53c-7.224 0-14.327-4.414-14.327-4.414S38.941 73.009 25.43 71.5C11.917 69.989.735 59.762.503 45.815z"/><path clip-path="url(#b)" d="M16.313 56.08a1.421 1.421 0 00-.121-.308.902.902 0 00-.192-.244.898.898 0 00-.28-.159 1.111 1.111 0 00-.373-.058c-.205 0-.386.04-.534.124-.15.083-.271.194-.366.333a1.504 1.504 0 00-.209.473 2.186 2.186 0 00-.066.542c0 .184.021.366.066.542.046.177.115.333.209.472.095.14.216.251.366.334.148.084.329.123.534.123a.982.982 0 00.401-.077.907.907 0 00.3-.217c.08-.092.147-.199.193-.321.049-.124.078-.255.094-.396h.662c-.017.23-.066.443-.15.634s-.2.355-.345.493c-.145.14-.315.247-.51.325-.194.073-.41.111-.646.111-.291 0-.55-.054-.777-.158a1.738 1.738 0 01-.584-.437 1.897 1.897 0 01-.365-.644 2.367 2.367 0 01-.129-.785c0-.273.043-.533.129-.78.084-.243.205-.459.365-.643.159-.185.353-.33.584-.438.228-.108.486-.164.777-.164.217 0 .423.03.613.089.193.062.36.147.507.262.146.112.267.251.355.413.091.161.147.346.17.557l-.678.002zm1.299-1.225h.679v3.275h1.968v.583h-2.646l-.001-3.858zm4.756-.095c.291 0 .55.056.78.164.228.107.425.253.583.438.158.184.28.399.364.643.085.247.129.506.129.78 0 .275-.044.539-.129.785a1.949 1.949 0 01-.364.644 1.754 1.754 0 01-.583.437 1.87 1.87 0 01-.78.158 1.729 1.729 0 01-1.361-.595 1.927 1.927 0 01-.363-.644 2.293 2.293 0 01-.13-.785c0-.273.041-.533.13-.78.084-.243.205-.459.363-.643a1.782 1.782 0 011.361-.602m0 .553c-.206 0-.383.039-.532.123a1.041 1.041 0 00-.367.333 1.46 1.46 0 00-.209.473 2.187 2.187 0 000 1.084c.046.177.113.333.209.472a1.025 1.025 0 00.899.457c.206 0 .385-.039.537-.123a1.05 1.05 0 00.364-.334c.096-.138.164-.294.208-.472.047-.176.069-.357.069-.542 0-.187-.022-.363-.069-.542a1.435 1.435 0 00-.208-.473 1.086 1.086 0 00-.364-.333 1.106 1.106 0 00-.537-.123m2.431-.458h.679v2.25c0 .127.007.259.019.392.013.135.05.254.109.36a.72.72 0 00.271.262c.122.069.29.104.515.104.219 0 .39-.033.511-.104a.708.708 0 00.272-.262.9.9 0 00.107-.36 4.38 4.38 0 00.02-.392v-2.25h.678v2.47c0 .248-.038.464-.114.65a1.18 1.18 0 01-.322.46 1.341 1.341 0 01-.503.278 2.1 2.1 0 01-.648.093c-.24 0-.458-.03-.652-.093a1.32 1.32 0 01-.502-.278 1.193 1.193 0 01-.323-.46 1.73 1.73 0 01-.114-.65v-2.47h-.003zm3.958 0h1.606c.297 0 .552.05.771.146.216.105.395.24.529.418.14.173.24.379.308.611.066.235.101.485.101.753 0 .267-.034.519-.101.751a1.72 1.72 0 01-.308.615 1.398 1.398 0 01-.529.413c-.22.101-.475.15-.771.15h-1.606v-3.857zm.679 3.307h.668c.264 0 .479-.034.647-.105a.938.938 0 00.591-.729 2.81 2.81 0 000-1.089 1.077 1.077 0 00-.194-.438.967.967 0 00-.397-.292 1.724 1.724 0 00-.647-.104h-.668v2.757zm5.38 1.071a6.934 6.934 0 01-.307-.534 4.255 4.255 0 01-.477-1.958c0-.436.07-.864.205-1.284.135-.425.328-.824.578-1.207h.506a5.397 5.397 0 00-.499 1.197 5.082 5.082 0 00-.007 2.593c.108.41.277.81.506 1.193h-.505zm.874-4.378h2.788v.583h-2.111v1.012h1.953v.551h-1.953v1.131h2.148v.583H35.69v-3.86zm3.47-.606c.11.173.212.352.305.537.095.186.177.38.246.583a4.025 4.025 0 01.232 1.376c0 .436-.068.865-.203 1.288a4.873 4.873 0 01-.578 1.199h-.506a5.36 5.36 0 00.498-1.192c.114-.408.171-.84.171-1.294 0-.452-.055-.885-.165-1.296a4.596 4.596 0 00-.504-1.201h.504zm4.074 1.831a1.166 1.166 0 00-.119-.308.84.84 0 00-.473-.403 1.103 1.103 0 00-.371-.058c-.206 0-.386.04-.533.124a1.013 1.013 0 00-.366.333 1.485 1.485 0 00-.211.473 2.187 2.187 0 000 1.084c.046.177.116.333.211.472.092.14.214.251.366.334.147.084.327.123.533.123.15 0 .283-.026.4-.077a.927.927 0 00.494-.538 1.58 1.58 0 00.092-.396h.661c-.012.23-.063.443-.147.634a1.543 1.543 0 01-.855.818 1.836 1.836 0 01-.646.111c-.291 0-.551-.054-.78-.158a1.774 1.774 0 01-.583-.437 1.946 1.946 0 01-.364-.644 2.393 2.393 0 01-.128-.785c0-.273.043-.533.128-.78.086-.243.205-.459.364-.643a1.75 1.75 0 011.363-.602c.216 0 .421.03.612.089.192.062.36.147.506.262.146.112.268.251.355.413.09.161.148.346.171.557l-.68.002zm2.953-1.32c.288 0 .546.056.776.164.23.107.424.253.583.438.16.184.281.399.367.643a2.45 2.45 0 010 1.565 1.955 1.955 0 01-.367.644 1.744 1.744 0 01-.583.437c-.23.104-.488.158-.776.158a1.86 1.86 0 01-.78-.158 1.74 1.74 0 01-.583-.437 1.931 1.931 0 01-.365-.644 2.368 2.368 0 01-.13-.785c0-.273.044-.533.13-.78.084-.243.207-.459.365-.643a1.73 1.73 0 01.583-.438c.228-.109.488-.164.78-.164m0 .553a1.07 1.07 0 00-.536.123 1.05 1.05 0 00-.367.333 1.48 1.48 0 00-.208.473 2.188 2.188 0 000 1.084c.045.177.114.333.208.472.095.141.216.251.367.334.147.084.328.123.536.123.204 0 .382-.039.532-.123.149-.083.272-.193.366-.334.095-.138.164-.294.209-.472a2.23 2.23 0 000-1.084 1.48 1.48 0 00-.209-.473 1.065 1.065 0 00-.366-.333 1.086 1.086 0 00-.532-.123m2.46-.458h.956l1.068 3.021h.011l1.041-3.021h.944v3.858h-.647v-2.979h-.009l-1.075 2.979h-.557l-1.075-2.979h-.012v2.979h-.646l.001-3.858zm4.828 0h.953l1.07 3.021h.01l1.043-3.021h.942v3.858h-.646v-2.979h-.01l-1.074 2.979h-.558l-1.075-2.979h-.012v2.979h-.646v-3.858h.003zm4.821 0h2.789v.583h-2.109v1.012h1.953v.551h-1.953v1.131h2.146v.583h-2.825l-.001-3.86zm3.423 0h1.85c.429 0 .746.09.959.272.214.187.321.44.321.771 0 .182-.028.334-.083.455-.052.12-.117.218-.189.294a.83.83 0 01-.215.158c-.069.029-.122.054-.154.064v.009a.715.715 0 01.188.056.513.513 0 01.188.138.792.792 0 01.145.248c.038.099.056.224.056.378 0 .226.02.433.053.62.036.185.087.315.157.396h-.725a.62.62 0 01-.089-.274 3.342 3.342 0 01-.015-.292c0-.177-.013-.329-.033-.456a.768.768 0 00-.119-.319.533.533 0 00-.235-.188 1.06 1.06 0 00-.382-.059h-1v1.589h-.677v-3.86zm.677 1.756h1.113c.216 0 .38-.056.493-.156.111-.103.168-.256.168-.46a.708.708 0 00-.055-.3.46.46 0 00-.149-.183.592.592 0 00-.218-.085 1.216 1.216 0 00-.253-.022h-1.1v1.206zm5.761-.531a1.365 1.365 0 00-.117-.308.84.84 0 00-.476-.403 1.087 1.087 0 00-.371-.058c-.205 0-.384.04-.534.124a1.073 1.073 0 00-.366.333 1.457 1.457 0 00-.207.473 2.142 2.142 0 000 1.084c.044.177.113.333.207.472.096.14.218.251.366.334.15.084.329.123.534.123a.994.994 0 00.402-.077.895.895 0 00.297-.217 1.03 1.03 0 00.198-.321c.045-.124.076-.255.09-.396h.661c-.015.23-.063.443-.149.634a1.544 1.544 0 01-.853.818 1.844 1.844 0 01-.646.111c-.288 0-.55-.054-.776-.158a1.752 1.752 0 01-.585-.437 1.948 1.948 0 01-.365-.644 2.393 2.393 0 01-.129-.785c0-.273.044-.533.129-.78.084-.243.208-.459.365-.643.16-.185.354-.33.585-.438.228-.108.488-.164.776-.164.219 0 .423.03.612.089.19.062.361.147.507.262.146.112.267.251.356.413.09.161.146.346.168.557l-.679.002zm1.303-1.225h2.785v.583h-2.107v1.012h1.951v.551h-1.951v1.131h2.146v.583h-2.822l-.002-3.86zm4.928 0h1.708c.276 0 .501.038.674.116a1.022 1.022 0 01.592.687c.034.141.052.271.052.391 0 .118-.018.246-.052.385a1 1 0 01-.592.683c-.173.078-.396.117-.674.117h-1.031v1.48h-.677v-3.859zm.676 1.827h.994a.862.862 0 00.232-.031.746.746 0 00.221-.104.556.556 0 00.162-.195.66.66 0 00.062-.309.754.754 0 00-.056-.314c-.034-.08-.083-.146-.146-.194s-.131-.082-.21-.1a1.11 1.11 0 00-.256-.027h-1.005l.002 1.274zm2.941-1.827h.676v3.275h1.973v.583h-2.647l-.002-3.858zm4.142 0h.72l1.493 3.858h-.728l-.361-1.021h-1.548l-.362 1.021h-.699l1.485-3.858zm-.24 2.323h1.185l-.579-1.661h-.021l-.585 1.661zm1.957-2.323h3.137v.583h-1.229v3.275h-.679v-3.275h-1.229v-.583zm3.582 0h2.676v.583h-1.996v1.012h1.751v.551h-1.751v1.713h-.68v-3.859zm4.875-.095a1.8 1.8 0 01.779.164c.229.107.425.253.583.438.162.184.281.399.366.643.085.247.128.506.128.78 0 .275-.043.539-.128.785s-.204.459-.366.644a1.744 1.744 0 01-.583.437 1.862 1.862 0 01-.779.158c-.288 0-.549-.054-.775-.158a1.705 1.705 0 01-.584-.437 1.897 1.897 0 01-.365-.644 2.367 2.367 0 01-.128-.785c0-.273.042-.533.128-.78.083-.243.206-.459.365-.643a1.771 1.771 0 011.359-.602m0 .553c-.205 0-.384.039-.532.123-.15.083-.273.194-.366.333a1.397 1.397 0 00-.208.473 2.097 2.097 0 00-.068.542c0 .184.021.366.068.542a1.4 1.4 0 00.208.472 1.022 1.022 0 00.898.457c.208 0 .386-.039.537-.123.147-.083.271-.193.366-.334a1.44 1.44 0 00.206-.472 2.136 2.136 0 000-1.084 1.474 1.474 0 00-.206-.473 1.112 1.112 0 00-.366-.333 1.095 1.095 0 00-.537-.123m2.462-.458h1.851c.427 0 .747.09.959.272.216.187.318.44.318.771 0 .182-.023.334-.08.455-.055.12-.119.218-.188.294a.848.848 0 01-.215.158c-.069.029-.123.054-.155.064v.009c.06.007.121.027.188.056a.53.53 0 01.188.138.789.789 0 01.142.248c.04.099.06.224.06.378 0 .226.017.433.052.62.033.185.086.315.16.396h-.729a.664.664 0 01-.091-.274 3.315 3.315 0 01-.013-.292c0-.177-.011-.329-.032-.456a.81.81 0 00-.117-.319.55.55 0 00-.237-.188 1.064 1.064 0 00-.382-.059h-.999v1.589h-.679v-3.86zm.678 1.756h1.111c.218 0 .381-.056.495-.156.111-.103.167-.256.167-.46a.693.693 0 00-.055-.3.431.431 0 00-.15-.183.575.575 0 00-.216-.085 1.219 1.219 0 00-.252-.022H95.46l.001 1.206zm3.136-1.756h.955l1.065 3.021h.015l1.04-3.021h.944v3.858h-.646v-2.979h-.011l-1.073 2.979h-.561l-1.072-2.979h-.011v2.979h-.646v-3.858zm-5.92-20.956h-6.848v5.033c-1.153-3.262-4.352-5.258-8.085-5.258-3.769 0-6.992 2.036-8.117 5.35v-5.151H64.86v5.373h-4.462v-5.373H55.63v3.922c-.443-3.243-3.251-4.365-6.396-4.365-.768 0-1.528.09-2.241.275l2.24-5.192h-2.739L36.071 52.697h2.742l3.587-8.333c.245 4.662 5.074 5.271 6.79 5.271 2.533 0 5.206-.704 6.442-2.68v2.385H60.4v-6.131h4.462v6.131h4.767v-4.957c1.121 3.32 4.336 5.231 8.117 5.231 3.745 0 6.935-1.877 8.085-5.139v4.891h5.146v-4.657h2.873c3.14 0 5.107-1.967 5.107-5.126 0-3.837-2.665-5.684-6.28-5.684M49.605 46.211c-.889 0-1.929-.2-2.273-1.128a2.828 2.828 0 01-.176-1.021h-4.625l1.33-3.08c1.015 1.138 2.77 1.59 4.379 2.045 2.665.755 3.338.972 3.338 1.773 0 1.15-1.196 1.411-1.973 1.411m2.381-6.371c-2.187-.604-4.397-.842-4.484-1.948 0-.867 1.062-1.041 1.711-1.041.478 0 1.021.107 1.409.39.392.259.649.651.562 1.235h4.448v3.463c-.814-1.132-2.224-1.704-3.646-2.099m25.759 5.374c-1.968 0-3.347-1.397-3.347-3.438 0-1.897 1.282-3.486 3.347-3.486 2.063 0 3.348 1.589 3.348 3.486-.001 2.04-1.382 3.438-3.348 3.438m13.936-4.266h-.705v-3.226h.683c1.172 0 2.636.071 2.636 1.527-.001 1.503-1.358 1.699-2.614 1.699M38.654 28.512l-4.031 10.24-5.338-10.101-5.301 10.101-4.064-10.214h-6.483L23.81 52.697l5.475-10.099 5.413 10.099 10.42-24.185zm64.065 6.927c0 .249-.044.478-.132.681a1.565 1.565 0 01-.879.87c-.196.08-.406.12-.623.12-.239 0-.461-.043-.661-.126a1.57 1.57 0 01-.521-.351 1.687 1.687 0 01-.461-1.194c0-.251.044-.481.131-.686a1.586 1.586 0 01.881-.866c.2-.081.411-.12.631-.12.217 0 .427.039.623.12a1.567 1.567 0 01.879.866c.088.205.132.435.132.686m-.358 0c0-.202-.034-.391-.1-.559a1.291 1.291 0 00-.272-.438 1.199 1.199 0 00-.404-.285 1.25 1.25 0 00-.502-.101c-.184 0-.354.034-.51.101-.151.066-.292.16-.405.285a1.307 1.307 0 00-.272.438 1.5 1.5 0 00-.101.559c0 .19.03.37.089.536.062.167.146.311.258.438.111.124.248.225.404.296.159.074.337.112.537.112a1.236 1.236 0 00.906-.387c.116-.121.207-.267.272-.438.066-.164.1-.352.1-.557m-1.608.957h-.306v-1.85h.705c.221 0 .391.04.503.124.112.085.169.22.169.41 0 .167-.045.287-.137.367a.62.62 0 01-.343.135l.517.815h-.344l-.48-.79h-.284v.789zm.341-1.052c.055 0 .107-.001.16-.006a.37.37 0 00.139-.038.28.28 0 00.093-.088.289.289 0 00.038-.157.2.2 0 00-.042-.135.231.231 0 00-.095-.076.362.362 0 00-.129-.034 1.714 1.714 0 00-.142-.005h-.364v.539h.342z"/></svg>