<svg width="40" height="24" viewBox="0 0 40 24" fill="none" xmlns="http://www.w3.org/2000/svg">
<path fill-rule="evenodd" clip-rule="evenodd" d="M9.83138 23.7191C9.32818 23.7185 8.8254 23.69 8.32535 23.6338C3.5743 23.1056 0.0733543 19.4931 0.00116992 15.0472C-0.0447656 12.3862 1.2644 9.69896 3.5054 7.85169C4.52304 6.98153 5.72411 6.35252 7.01893 6.01163C8.31375 5.67074 9.66885 5.62678 10.983 5.88303C11.2849 4.95119 13.1912 0 19.4647 0C25.7382 0 27.4641 4.82979 27.7265 5.71897C28.596 5.64351 33.0715 5.51554 34.8433 10.5225C35.6209 10.5652 39.9651 11.0344 40.0012 16.1004C40.0307 20.5299 35.8145 21.5995 34.6825 21.6422C33.7053 21.6695 32.7378 21.4435 31.8739 20.986C30.8793 22.0453 29.5234 22.6928 28.0743 22.8004C26.7072 22.8722 25.3389 22.684 24.0419 22.2459C22.8306 23.1589 21.3649 23.6716 19.8486 23.7126C17.6995 23.7126 15.6258 22.5707 15.1566 22.2951C14.7334 22.5937 12.9287 23.7191 9.83138 23.7191ZM9.26046 6.05365C7.22675 6.06627 5.26243 6.79461 3.7121 8.1109C1.54985 9.89254 0.286626 12.4846 0.329281 15.0439C0.401465 19.3093 3.77773 22.8004 8.36144 23.3123C12.6663 23.7913 15.0221 21.9998 15.0451 21.9736L15.1369 21.9014L15.2321 21.9637C15.2342 21.9637 15.255 21.9755 15.293 21.9969C15.6727 22.2109 17.7606 23.3877 19.8486 23.3877C21.319 23.3361 22.7372 22.8294 23.9073 21.9375L23.9828 21.8752L24.0747 21.9112C25.3543 22.3513 26.7065 22.5418 28.0579 22.4723C29.4643 22.3559 30.7736 21.7083 31.7197 20.6611L31.8181 20.543L31.9428 20.6316C32.5038 21.0418 33.7474 21.36 34.6694 21.3239C35.7325 21.2846 39.7026 20.2805 39.6731 16.1135C39.637 10.8933 34.9056 10.8638 34.7252 10.8638H34.607L34.5677 10.7522C32.7368 5.35477 27.8381 6.0274 27.6314 6.06021L27.4805 6.08318L27.4444 5.93225C27.3919 5.70585 26.0893 0.35436 19.4647 0.35436C12.8402 0.35436 11.2619 6.08318 11.2619 6.13896L11.2226 6.28989L11.0684 6.26036C10.4746 6.12822 9.86867 6.05893 9.26046 6.05365ZM5.35266 18.4136C5.34353 18.3783 5.33032 18.3441 5.31329 18.3119C5.29596 18.2812 5.2738 18.2535 5.24766 18.2299C5.22045 18.2078 5.18927 18.1911 5.15579 18.1806C5.11693 18.1665 5.07574 18.1598 5.03439 18.161C4.97408 18.1596 4.91435 18.1731 4.86049 18.2003C4.8126 18.2285 4.77123 18.2665 4.73909 18.3119C4.70774 18.3591 4.68446 18.4112 4.67019 18.4661C4.657 18.5242 4.65039 18.5837 4.6505 18.6433C4.65039 18.7029 4.657 18.7623 4.67019 18.8205C4.6851 18.8751 4.70834 18.9271 4.73909 18.9747C4.77123 19.02 4.8126 19.058 4.86049 19.0862C4.91435 19.1134 4.97408 19.1269 5.03439 19.1256C5.07948 19.126 5.12416 19.117 5.16564 19.0993C5.20328 19.0842 5.23695 19.0606 5.26407 19.0304C5.29086 18.9988 5.31296 18.9634 5.32969 18.9254C5.34299 18.8826 5.35286 18.8387 5.35922 18.7942H5.57578C5.57186 18.8655 5.55519 18.9355 5.52656 19.0009C5.50028 19.0623 5.4624 19.118 5.415 19.165C5.36595 19.2097 5.30928 19.2453 5.24766 19.27C5.17959 19.2957 5.10715 19.308 5.03439 19.3061C4.94622 19.3081 4.85871 19.2902 4.77846 19.2536C4.70545 19.2211 4.64048 19.1729 4.58816 19.1125C4.53514 19.0493 4.49401 18.977 4.46676 18.8992C4.43989 18.8166 4.4266 18.7302 4.42739 18.6433C4.4271 18.5564 4.44038 18.4701 4.46676 18.3874C4.49383 18.3104 4.535 18.2392 4.58816 18.1774C4.64036 18.116 4.70529 18.0667 4.77846 18.033C4.85871 17.9964 4.94622 17.9784 5.03439 17.9805C5.10197 17.9805 5.16925 17.9893 5.23454 18.0067C5.29509 18.0262 5.35174 18.0562 5.40188 18.0953C5.45039 18.1312 5.49067 18.1771 5.52 18.2299C5.55016 18.287 5.5691 18.3493 5.57578 18.4136H5.35266ZM5.79233 18.01H6.00232V19.0862H6.65854V19.2667H5.79233V18.01ZM7.33773 17.9805C7.42591 17.9784 7.51341 17.9964 7.59366 18.033C7.66785 18.0666 7.73389 18.1158 7.78724 18.1774C7.83924 18.2395 7.87929 18.3107 7.90536 18.3874C7.93438 18.4695 7.94881 18.5561 7.94802 18.6433C7.94906 18.7315 7.93463 18.8192 7.90536 18.9025C7.87851 18.9788 7.83853 19.0499 7.78724 19.1125C7.73298 19.173 7.66716 19.2221 7.59366 19.2568C7.51265 19.2907 7.42552 19.3075 7.33773 19.3061C7.25097 19.3078 7.16485 19.291 7.08509 19.2568C7.01111 19.2229 6.94513 19.1737 6.8915 19.1125C6.83898 19.0507 6.79888 18.9794 6.77338 18.9025C6.74412 18.8192 6.72968 18.7315 6.73073 18.6433C6.72993 18.5561 6.74436 18.4695 6.77338 18.3874C6.79816 18.3101 6.83834 18.2387 6.8915 18.1774C6.94418 18.1151 7.0104 18.0657 7.08509 18.033C7.16408 17.9961 7.25058 17.9781 7.33773 17.9805ZM7.33773 18.161C7.27741 18.1596 7.21769 18.1731 7.16383 18.2003C7.11594 18.2285 7.07457 18.2665 7.04243 18.3119C7.01108 18.3591 6.9878 18.4112 6.97353 18.4661C6.96033 18.5242 6.95373 18.5837 6.95384 18.6433C6.95373 18.7029 6.96033 18.7623 6.97353 18.8205C6.9878 18.8753 7.01108 18.9274 7.04243 18.9747C7.07366 19.0208 7.11523 19.059 7.16383 19.0862C7.21769 19.1134 7.27741 19.1269 7.33773 19.1256C7.39914 19.1274 7.46003 19.1138 7.51491 19.0862C7.56302 19.0595 7.60363 19.0212 7.63303 18.9747C7.66698 18.9289 7.69049 18.8763 7.70193 18.8205C7.71806 18.7628 7.72579 18.7031 7.7249 18.6433C7.72536 18.5834 7.71763 18.5238 7.70193 18.4661C7.68982 18.4105 7.66637 18.358 7.63303 18.3119C7.60292 18.266 7.56247 18.2278 7.51491 18.2003C7.46003 18.1727 7.39914 18.1592 7.33773 18.161ZM8.14816 18.01H8.35815V18.7483V18.8762C8.36062 18.9179 8.37299 18.9584 8.39425 18.9944C8.415 19.0315 8.44567 19.0622 8.48284 19.0829C8.53646 19.1068 8.59482 19.118 8.65346 19.1158C8.71115 19.1198 8.76888 19.1084 8.82079 19.0829C8.85796 19.0622 8.88863 19.0315 8.90938 18.9944C8.92878 18.9576 8.94103 18.9175 8.94548 18.8762V18.7483V18.01H9.16531V18.8205C9.16812 18.8933 9.15583 18.9659 9.12922 19.0337C9.10797 19.0923 9.07177 19.1444 9.02422 19.1847C8.97705 19.2271 8.921 19.2585 8.86016 19.2765C8.79088 19.2966 8.71904 19.3066 8.64689 19.3061C8.58196 19.3017 8.51793 19.2884 8.45659 19.2667C8.39445 19.2494 8.33717 19.218 8.28925 19.1748C8.24274 19.1336 8.20674 19.0818 8.18426 19.0239C8.1592 18.9556 8.14696 18.8833 8.14816 18.8106V18.01ZM9.44748 18.01H9.97574C10.0625 18.0079 10.1487 18.0247 10.2284 18.0592C10.2963 18.0909 10.3559 18.1381 10.4023 18.197C10.449 18.2565 10.4835 18.3245 10.504 18.3972C10.5253 18.4775 10.5363 18.5602 10.5368 18.6433C10.5363 18.7264 10.5253 18.809 10.504 18.8894C10.4835 18.9631 10.449 19.0322 10.4023 19.0928C10.3549 19.1498 10.2955 19.1958 10.2284 19.2273C10.1486 19.2615 10.0625 19.2783 9.97574 19.2765H9.44092L9.44748 18.01ZM9.6706 19.0961H9.89043C9.96318 19.0978 10.0356 19.0856 10.1037 19.06C10.1544 19.0407 10.1987 19.0078 10.2317 18.9648C10.265 18.9228 10.2875 18.8732 10.2973 18.8205C10.3082 18.762 10.3137 18.7027 10.3137 18.6433C10.3136 18.5838 10.3081 18.5245 10.2973 18.4661C10.2875 18.4133 10.265 18.3638 10.2317 18.3217C10.1975 18.28 10.1535 18.2473 10.1037 18.2266C10.0356 18.201 9.96318 18.1887 9.89043 18.1905H9.6706V19.0961ZM11.4358 19.4471C11.3997 19.3914 11.3669 19.3323 11.3341 19.2732C11.3045 19.2113 11.2782 19.1477 11.2554 19.0829C11.2303 19.0137 11.2116 18.9423 11.1996 18.8697C11.1861 18.7906 11.1795 18.7104 11.1799 18.6302C11.1803 18.4866 11.2024 18.3439 11.2455 18.2069C11.2915 18.0679 11.3555 17.9355 11.4358 17.8132H11.6032C11.5316 17.9356 11.4765 18.0668 11.4391 18.2036C11.4019 18.3427 11.3831 18.4861 11.3833 18.6302C11.3821 18.774 11.3997 18.9174 11.4358 19.0567C11.4729 19.1941 11.5293 19.3255 11.6032 19.4471H11.4358ZM11.7246 18.01H12.6367V18.2003H11.9444V18.5284H12.6006V18.7089H11.9444V19.0797H12.6498V19.2667H11.7246V18.01ZM12.8631 17.8132L12.88 17.8418C12.908 17.8889 12.937 17.938 12.9615 17.9871C12.9928 18.0498 13.0202 18.1145 13.0436 18.1806C13.066 18.2496 13.0846 18.3197 13.0994 18.3906C13.1128 18.4698 13.1194 18.5499 13.119 18.6302C13.1191 18.774 13.0959 18.917 13.0501 19.0534C13.0067 19.1928 12.9437 19.3254 12.8631 19.4471H12.6958C12.766 19.3241 12.821 19.193 12.8598 19.0567C12.8971 18.9176 12.9158 18.7742 12.9156 18.6302C12.9151 18.4875 12.8975 18.3454 12.8631 18.2069C12.8255 18.0687 12.7692 17.9362 12.6958 17.8132H12.8631ZM14.1985 18.4136C14.1894 18.3783 14.1762 18.3441 14.1592 18.3119C14.1432 18.2812 14.1221 18.2534 14.0968 18.2299C14.0692 18.2084 14.0381 18.1917 14.0049 18.1806C13.966 18.1669 13.9249 18.1603 13.8835 18.161C13.8221 18.1592 13.7612 18.1727 13.7064 18.2003C13.6588 18.2278 13.6184 18.266 13.5882 18.3119C13.5543 18.3576 13.5308 18.4103 13.5193 18.4661C13.5036 18.5238 13.4959 18.5834 13.4964 18.6433C13.4959 18.7031 13.5036 18.7627 13.5193 18.8205C13.5314 18.8761 13.5549 18.9286 13.5882 18.9747C13.6184 19.0206 13.6588 19.0588 13.7064 19.0862C13.7612 19.1138 13.8221 19.1274 13.8835 19.1256C13.9286 19.126 13.9733 19.117 14.0148 19.0993C14.0516 19.0826 14.0849 19.0593 14.1132 19.0304C14.139 18.9986 14.16 18.9633 14.1756 18.9254C14.1919 18.8834 14.2019 18.8392 14.2051 18.7942H14.4216C14.4188 18.8653 14.4032 18.9353 14.3757 19.0009C14.3482 19.0624 14.3093 19.1181 14.2609 19.165C14.2129 19.2111 14.1559 19.2468 14.0935 19.27C14.0266 19.2957 13.9552 19.308 13.8835 19.3061C13.7953 19.3087 13.7077 19.2907 13.6276 19.2536C13.5536 19.2211 13.4876 19.173 13.434 19.1125C13.3809 19.0499 13.3407 18.9774 13.3159 18.8992C13.2864 18.8172 13.2719 18.7305 13.2733 18.6433C13.2725 18.5561 13.2869 18.4695 13.3159 18.3874C13.3407 18.3101 13.3809 18.2387 13.434 18.1774C13.4874 18.1158 13.5534 18.0666 13.6276 18.033C13.7077 17.9958 13.7953 17.9779 13.8835 17.9805C13.9511 17.9807 14.0184 17.9895 14.0837 18.0067C14.1432 18.0262 14.1988 18.0562 14.2477 18.0953C14.2963 18.1312 14.3365 18.1771 14.3659 18.2299C14.3975 18.2864 14.4165 18.349 14.4216 18.4136H14.1985ZM15.1665 17.9805C15.2546 17.9784 15.3421 17.9964 15.4224 18.033C15.4956 18.0667 15.5605 18.116 15.6127 18.1774C15.6659 18.2392 15.707 18.3104 15.7341 18.3874C15.7605 18.4701 15.7738 18.5564 15.7735 18.6433C15.774 18.7312 15.7607 18.8187 15.7341 18.9025C15.7061 18.979 15.665 19.05 15.6127 19.1125C15.5596 19.1729 15.4949 19.222 15.4224 19.2568C15.3414 19.2907 15.2542 19.3075 15.1665 19.3061C15.0787 19.3075 14.9915 19.2907 14.9105 19.2568C14.838 19.222 14.7733 19.1729 14.7202 19.1125C14.6679 19.05 14.6268 18.979 14.5988 18.9025C14.5711 18.8189 14.5567 18.7314 14.5562 18.6433C14.557 18.5563 14.5714 18.4699 14.5988 18.3874C14.6259 18.3104 14.6671 18.2392 14.7202 18.1774C14.7724 18.116 14.8374 18.0667 14.9105 18.033C14.9868 17.9983 15.0696 17.9804 15.1533 17.9805H15.1665ZM15.1665 18.161L15.1567 18.1608C15.2203 18.1573 15.2837 18.171 15.3404 18.2003C15.3889 18.2276 15.4304 18.2658 15.4618 18.3119C15.4938 18.3587 15.5171 18.411 15.5307 18.4661C15.545 18.5241 15.5527 18.5835 15.5536 18.6433C15.5529 18.703 15.5452 18.7625 15.5307 18.8205C15.5178 18.8758 15.4944 18.9282 15.4618 18.9747C15.4314 19.0216 15.3897 19.06 15.3404 19.0862C15.2866 19.1138 15.2268 19.1274 15.1665 19.1256C15.1061 19.1277 15.0462 19.1141 14.9926 19.0862C14.9427 19.0607 14.9008 19.0222 14.8712 18.9747C14.8385 18.9282 14.8151 18.8758 14.8023 18.8205C14.788 18.7624 14.7802 18.703 14.7793 18.6433C14.7802 18.5835 14.788 18.5241 14.8023 18.4661C14.8151 18.4107 14.8385 18.3584 14.8712 18.3119C14.9015 18.265 14.9433 18.2266 14.9926 18.2003C15.0433 18.174 15.0996 18.1604 15.1567 18.1608L15.1533 18.161H15.1665ZM15.9769 18.01H16.3017L16.6528 18.9944L16.9809 18.01H17.2893V19.2667H17.0793V18.2824L16.725 19.2667H16.5412L16.1902 18.2824V19.2667H15.9769V18.01ZM17.5584 18.01H17.8865L18.2376 18.9944L18.5657 18.01H18.8741V19.2667H18.6608V18.2824L18.2999 19.2667H18.1162L17.7618 18.2824V19.2667H17.5518V18.01H17.5584ZM19.1399 18.01H20.0553V18.2003H19.363V18.5284H20.0192V18.7089H19.363V19.0797H20.0684V19.2667H19.1399V18.01ZM20.262 18.01H20.869C20.9856 17.9981 21.1024 18.0297 21.1971 18.0986C21.2322 18.1311 21.2598 18.1708 21.2779 18.215C21.2961 18.2592 21.3043 18.3068 21.3021 18.3545C21.3049 18.4051 21.2959 18.4557 21.2759 18.5022C21.2614 18.5376 21.2402 18.5699 21.2135 18.5973C21.1948 18.6198 21.1713 18.6378 21.1446 18.6498L21.0921 18.6728C21.1127 18.6687 21.1339 18.6687 21.1545 18.6728C21.178 18.684 21.1992 18.6996 21.2168 18.7187C21.238 18.7424 21.2536 18.7704 21.2628 18.8008C21.2693 18.8469 21.2659 18.8939 21.2529 18.9386C21.2477 19.0063 21.2477 19.0743 21.2529 19.142C21.26 19.1882 21.278 19.2321 21.3054 19.27H21.0659C21.0493 19.2431 21.0392 19.2128 21.0364 19.1814V19.0829C21.0401 19.0338 21.0401 18.9844 21.0364 18.9353C21.032 18.8976 21.0185 18.8616 20.997 18.8303C20.9769 18.8027 20.9497 18.7812 20.9182 18.768C20.8783 18.7534 20.836 18.7467 20.7936 18.7483H20.4654V19.2667H20.2423L20.262 18.01ZM20.4851 18.5875H20.8493C20.9086 18.5903 20.9668 18.5717 21.0134 18.535C21.0324 18.515 21.0469 18.4912 21.0559 18.4652C21.065 18.4392 21.0684 18.4115 21.0659 18.3841C21.0733 18.3517 21.0733 18.318 21.0659 18.2856C21.055 18.2619 21.038 18.2416 21.0167 18.2266C20.9944 18.2129 20.97 18.2029 20.9445 18.197H20.8625H20.5015L20.4851 18.5875ZM22.3751 18.4136C22.3674 18.3778 22.3541 18.3435 22.3357 18.3119C22.3198 18.2812 22.2987 18.2534 22.2733 18.2299C22.2461 18.2078 22.2149 18.1911 22.1815 18.1806C22.1425 18.1669 22.1014 18.1603 22.0601 18.161C21.9987 18.1592 21.9378 18.1727 21.8829 18.2003C21.8353 18.2278 21.7949 18.266 21.7648 18.3119C21.7308 18.3576 21.7073 18.4103 21.6959 18.4661C21.6802 18.5238 21.6724 18.5834 21.6729 18.6433C21.6724 18.7031 21.6802 18.7627 21.6959 18.8205C21.708 18.8761 21.7314 18.9286 21.7648 18.9747C21.7949 19.0206 21.8353 19.0588 21.8829 19.0862C21.9378 19.1138 21.9987 19.1274 22.0601 19.1256C22.1052 19.126 22.1498 19.117 22.1913 19.0993C22.2281 19.0826 22.2615 19.0593 22.2897 19.0304C22.3169 18.9997 22.3381 18.964 22.3521 18.9254C22.3685 18.8834 22.3784 18.8392 22.3816 18.7942H22.6014C22.5959 18.8653 22.5793 18.935 22.5522 19.0009C22.5248 19.0624 22.4858 19.1181 22.4374 19.165C22.3894 19.2111 22.3324 19.2468 22.2701 19.27C22.2031 19.2957 22.1318 19.308 22.0601 19.3061C21.9719 19.3081 21.8844 19.2902 21.8041 19.2536C21.7311 19.2211 21.6661 19.1729 21.6138 19.1125C21.5596 19.0501 21.5184 18.9776 21.4924 18.8992C21.4645 18.8168 21.45 18.7303 21.4498 18.6433C21.4506 18.5563 21.465 18.4699 21.4924 18.3874C21.5184 18.3099 21.5597 18.2385 21.6138 18.1774C21.666 18.116 21.731 18.0667 21.8041 18.033C21.8844 17.9964 21.9719 17.9784 22.0601 17.9805C22.1276 17.9805 22.1949 17.9893 22.2602 18.0067C22.3204 18.027 22.377 18.0569 22.4276 18.0953C22.4742 18.1322 22.5133 18.1779 22.5424 18.2299C22.574 18.2864 22.593 18.349 22.5982 18.4136H22.3751ZM22.8049 18.01H23.717V18.2003H23.0247V18.5284H23.6809V18.7089H23.0247V19.0797H23.7302V19.2667H22.8049V18.01ZM24.4192 18.01H24.9803C25.0555 18.007 25.1305 18.0205 25.2001 18.0494C25.2515 18.0706 25.2966 18.1044 25.3313 18.1478C25.362 18.1841 25.3844 18.2267 25.397 18.2725C25.4012 18.3162 25.4012 18.3601 25.397 18.4038C25.4011 18.4452 25.4011 18.487 25.397 18.5284C25.3848 18.5754 25.3624 18.6191 25.3313 18.6564C25.2974 18.6999 25.2519 18.7329 25.2001 18.7516C25.1305 18.7805 25.0555 18.7939 24.9803 18.7909H24.6521V19.2667H24.429L24.4192 18.01ZM24.662 18.6105H24.9704C24.9966 18.6136 25.023 18.6136 25.0492 18.6105C25.0747 18.6018 25.099 18.5896 25.1213 18.5744C25.143 18.5575 25.1609 18.5362 25.1738 18.512C25.188 18.48 25.1947 18.4453 25.1935 18.4103C25.1992 18.3755 25.1992 18.3401 25.1935 18.3053C25.1817 18.2813 25.1649 18.2601 25.1443 18.243C25.1242 18.2269 25.1006 18.2157 25.0754 18.2102C25.0471 18.2068 25.0184 18.2068 24.9901 18.2102H24.662V18.6105ZM25.6168 18.01H25.8301V19.0862H26.4863V19.2667H25.6168V18.01ZM26.9653 18.01H27.2016L27.6937 19.2765H27.4542L27.3361 18.9484H26.8308L26.7127 19.2765H26.483L26.9653 18.01ZM26.8866 18.7712H27.277L27.0867 18.2266L26.8866 18.7712ZM27.5428 18.01H28.5731V18.2003H28.1432V19.2667H27.9201V18.2003H27.5165L27.5428 18.01ZM28.7174 18.01H29.5968V18.2003H28.9405V18.5284H29.5147V18.7089H28.9405V19.2667H28.7174V18.01ZM30.3186 17.9805C30.4068 17.9784 30.4943 17.9964 30.5745 18.033C30.6472 18.0676 30.712 18.1167 30.7648 18.1774C30.818 18.2387 30.8582 18.3101 30.883 18.3874C30.912 18.4695 30.9264 18.5561 30.9256 18.6433C30.9267 18.7315 30.9122 18.8192 30.883 18.9025C30.8575 18.9794 30.8174 19.0507 30.7648 19.1125C30.7111 19.1722 30.6465 19.2212 30.5745 19.2568C30.4935 19.2907 30.4064 19.3075 30.3186 19.3061C30.2308 19.3075 30.1437 19.2907 30.0627 19.2568C29.9897 19.2228 29.9248 19.1736 29.8724 19.1125C29.82 19.05 29.779 18.979 29.751 18.9025C29.7233 18.8189 29.7089 18.7314 29.7083 18.6433C29.7092 18.5563 29.7235 18.4699 29.751 18.3874C29.7781 18.3104 29.8192 18.2392 29.8724 18.1774C29.9239 18.1153 29.989 18.0659 30.0627 18.033C30.1349 18.0001 30.213 17.9822 30.2924 17.9805H30.3186ZM30.3186 18.161C30.3115 18.1608 30.3045 18.1608 30.2974 18.161H30.3186ZM30.2974 18.161C30.2432 18.1625 30.19 18.1759 30.1414 18.2003C30.0939 18.2278 30.0534 18.266 30.0233 18.3119C29.9894 18.3576 29.9659 18.4103 29.9544 18.4661C29.9387 18.5238 29.931 18.5834 29.9314 18.6433C29.931 18.7031 29.9387 18.7627 29.9544 18.8205C29.9659 18.8763 29.9894 18.9289 30.0233 18.9747C30.0527 19.0212 30.0933 19.0595 30.1414 19.0862C30.1963 19.1138 30.2572 19.1274 30.3186 19.1256C30.3789 19.1269 30.4387 19.1134 30.4925 19.0862C30.5411 19.059 30.5827 19.0208 30.6139 18.9747C30.6453 18.9274 30.6685 18.8753 30.6828 18.8205C30.6962 18.7624 30.7028 18.7029 30.7025 18.6433C30.7026 18.5837 30.696 18.5242 30.6828 18.4661C30.6679 18.4115 30.6447 18.3594 30.6139 18.3119C30.5818 18.2665 30.5404 18.2285 30.4925 18.2003C30.4309 18.1686 30.3615 18.1549 30.2924 18.161H30.2974ZM31.1258 18.01H31.7328C31.8493 17.9981 31.9662 18.0297 32.0609 18.0986C32.096 18.1311 32.1235 18.1708 32.1417 18.215C32.1598 18.2592 32.1681 18.3068 32.1659 18.3545C32.1669 18.405 32.158 18.4552 32.1396 18.5022C32.1239 18.5369 32.1029 18.569 32.0773 18.5973C32.0568 18.6193 32.0323 18.6372 32.0051 18.6498L31.9559 18.6728C31.9753 18.6684 31.9955 18.6684 32.0149 18.6728C32.0385 18.684 32.0596 18.6996 32.0773 18.7187C32.0996 18.7421 32.1164 18.7701 32.1265 18.8008C32.1345 18.8419 32.1345 18.8843 32.1265 18.9254C32.126 18.9938 32.1326 19.0619 32.1462 19.1289C32.1503 19.1759 32.1686 19.2205 32.1987 19.2568H31.9592C31.9426 19.23 31.9325 19.1997 31.9296 19.1683V19.0698C31.9333 19.0207 31.9333 18.9713 31.9296 18.9222C31.9253 18.8845 31.9117 18.8484 31.8903 18.8172C31.8724 18.7889 31.8459 18.7671 31.8148 18.7548C31.7749 18.7403 31.7326 18.7336 31.6901 18.7351H31.362V19.2667H31.0962V18.01H31.1258ZM31.3489 18.5875H31.7131C31.7713 18.5904 31.8286 18.5717 31.8739 18.535C31.8934 18.5153 31.9086 18.4916 31.9182 18.4656C31.9278 18.4396 31.9317 18.4118 31.9296 18.3841C31.9308 18.3502 31.924 18.3165 31.91 18.2856C31.9011 18.2607 31.8836 18.2398 31.8607 18.2266C31.8396 18.2129 31.8163 18.2029 31.7918 18.197H31.7098H31.3456V18.5941L31.3489 18.5875ZM32.3759 18.01H32.704L33.0518 18.9944L33.3799 18.01H33.6883V19.2667H33.475V18.2824L33.124 19.2667H32.9402L32.5891 18.2824V19.2667H32.3759V18.01ZM28.1597 11.136H30.4072C31.595 11.136 32.4678 11.7397 32.4776 12.9898C32.4958 13.2149 32.465 13.4413 32.3873 13.6534C32.3096 13.8654 32.1868 14.0581 32.0274 14.2181C31.868 14.3781 31.6758 14.5016 31.4641 14.5801C31.2524 14.6587 31.0261 14.6904 30.801 14.6731H29.8593V16.2086H28.1728V14.6042C27.7955 15.6738 26.7685 16.2906 25.5184 16.2906C24.2683 16.2906 23.2216 15.6574 22.8311 14.5615V16.202H21.2693V14.1907H19.8027V16.1988H18.2409V15.4146C17.834 16.0642 16.958 16.2939 16.1278 16.2939C15.5635 16.2939 13.9787 16.0938 13.9 14.5648L12.722 17.2979H11.8361L15.2649 9.3675H16.1639L15.429 11.0704C15.6694 11.0107 15.9162 10.9809 16.1639 10.9818C17.1975 10.9818 18.1162 11.3493 18.2638 12.4124V11.1262H19.8256V12.8881H21.2923V11.1262H22.8541V12.8192C23.0555 12.2825 23.4218 11.8234 23.9006 11.5079C24.3793 11.1925 24.9457 11.037 25.5184 11.0638C26.0821 11.0388 26.6397 11.1904 27.1132 11.4974C27.5867 11.8044 27.9525 12.2516 28.1597 12.7766V11.136ZM15.844 15.1084C15.9774 15.1749 16.1282 15.1982 16.2755 15.1751C16.5314 15.1751 16.9219 15.0898 16.9219 14.7059C16.9219 14.4499 16.702 14.3712 15.8293 14.1218L15.8279 14.1215C15.3 13.9871 14.72 13.8393 14.3921 13.4656L13.9557 14.4762H15.4716C15.4713 14.5882 15.4913 14.6994 15.5307 14.8043C15.601 14.9357 15.7105 15.042 15.844 15.1084ZM16.6007 12.9691C16.7483 13.0048 16.9025 13.0421 17.0564 13.085C17.5228 13.1766 17.9448 13.4228 18.254 13.7839V12.6486H16.7939C16.8088 12.5706 16.7991 12.4899 16.7662 12.4176C16.7333 12.3453 16.6788 12.285 16.6102 12.245C16.4729 12.1555 16.3113 12.1108 16.1475 12.1171C15.9342 12.1171 15.5865 12.1597 15.5865 12.4452C15.6071 12.7288 16.0593 12.8382 16.6007 12.9691ZM25.0845 14.7713C25.2223 14.8265 25.3701 14.8523 25.5184 14.847C25.6667 14.8523 25.8145 14.8265 25.9522 14.7713C26.0899 14.716 26.2146 14.6326 26.3181 14.5262C26.4217 14.4199 26.5018 14.2931 26.5534 14.1539C26.6049 14.0148 26.6268 13.8664 26.6175 13.7183C26.6257 13.5698 26.6031 13.4212 26.5513 13.2818C26.4995 13.1425 26.4196 13.0152 26.3165 12.9081C26.2133 12.801 26.0893 12.7163 25.9519 12.6592C25.8146 12.6021 25.667 12.5739 25.5184 12.5764C25.3697 12.5739 25.2221 12.6021 25.0848 12.6592C24.9475 12.7163 24.8234 12.801 24.7203 12.9081C24.6172 13.0152 24.5372 13.1425 24.4854 13.2818C24.4336 13.4212 24.4111 13.5698 24.4192 13.7183C24.4099 13.8664 24.4318 14.0148 24.4834 14.1539C24.5349 14.2931 24.6151 14.4199 24.7186 14.5262C24.8221 14.6326 24.9468 14.716 25.0845 14.7713ZM29.8593 13.4459H30.0824C30.4925 13.4459 30.9486 13.3573 30.9486 12.8783C30.9486 12.3992 30.4696 12.3763 30.0824 12.3763H29.8593V13.4459ZM12.6827 9.3675L11.3604 12.7274L9.61155 9.41344L7.86928 12.7274L6.53715 9.37735H4.41099L7.8135 17.3045L9.61155 13.9906L11.3866 17.3045L14.8055 9.3675H12.6827ZM33.6588 11.8644C33.688 11.7937 33.7025 11.7178 33.7014 11.6413C33.7034 11.5637 33.6889 11.4865 33.6588 11.4149C33.6327 11.3498 33.5936 11.2906 33.544 11.241C33.4933 11.1935 33.4344 11.1556 33.3701 11.1295C33.3056 11.1029 33.2364 11.0895 33.1666 11.0901C33.0958 11.0898 33.0257 11.1032 32.9599 11.1295C32.8956 11.1556 32.8366 11.1935 32.786 11.241C32.7375 11.2915 32.6985 11.3504 32.6712 11.4149C32.6416 11.4867 32.6271 11.5637 32.6285 11.6413C32.628 11.7153 32.6413 11.7888 32.6679 11.8579C32.6928 11.9229 32.7308 11.9821 32.7795 12.0318C32.8275 12.0817 32.8857 12.1209 32.9501 12.1466C33.0188 12.1746 33.0924 12.1891 33.1666 12.1893C33.2364 12.1899 33.3056 12.1765 33.3701 12.1499C33.4344 12.1237 33.4933 12.0859 33.544 12.0383C33.5936 11.9887 33.6327 11.9296 33.6588 11.8644ZM33.5538 11.4576C33.5756 11.5164 33.5867 11.5786 33.5866 11.6413C33.5865 11.703 33.5754 11.7641 33.5538 11.8218C33.533 11.8747 33.503 11.9236 33.4652 11.9662C33.427 12.0055 33.3812 12.0367 33.3307 12.058C33.2792 12.0815 33.2232 12.0938 33.1666 12.0941C33.1057 12.0946 33.0453 12.0823 32.9894 12.058C32.94 12.0337 32.8954 12.0003 32.8582 11.9596C32.8199 11.918 32.7908 11.8688 32.7729 11.8152C32.7527 11.7595 32.7427 11.7006 32.7434 11.6413C32.7416 11.5785 32.7528 11.5159 32.7762 11.4576C32.7958 11.404 32.8259 11.3549 32.8648 11.3132C32.9029 11.2729 32.9486 11.2406 32.9993 11.2181C33.0524 11.1965 33.1093 11.1853 33.1666 11.1853C33.2229 11.186 33.2785 11.1971 33.3307 11.2181C33.3814 11.2406 33.4271 11.2729 33.4652 11.3132C33.503 11.3558 33.533 11.4046 33.5538 11.4576ZM32.9566 11.953H33.0584L33.0649 11.6938H33.1502L33.3077 11.953H33.4226L33.2519 11.6873C33.2928 11.683 33.3315 11.6671 33.3635 11.6413C33.3793 11.6261 33.3915 11.6077 33.3995 11.5873C33.4074 11.5669 33.4108 11.5451 33.4094 11.5232C33.4116 11.498 33.4077 11.4725 33.398 11.4491C33.3883 11.4257 33.3731 11.405 33.3536 11.3887C33.3053 11.3565 33.2475 11.3415 33.1896 11.346H32.9566V11.953ZM33.2224 11.6085H33.1699L33.0649 11.6348V11.4576H33.2224C33.2364 11.4542 33.251 11.4542 33.2651 11.4576C33.2781 11.4633 33.2894 11.4724 33.2979 11.4838C33.3022 11.4977 33.3022 11.5126 33.2979 11.5265C33.302 11.5437 33.302 11.5617 33.2979 11.579C33.2906 11.5911 33.2805 11.6013 33.2683 11.6085C33.2532 11.6119 33.2375 11.6119 33.2224 11.6085Z" fill="#686F78"/>
</svg>
